<svg width="300" height="48" viewBox="0 0 300 48" fill="none" xmlns="http://www.w3.org/2000/svg">
<path d="M139.822 13.7007V23.9478C136.924 21.7202 132.168 19.6163 124.837 20.2351V13.7007H120.75V34.0712H124.837V24.3439C134.967 23.3538 138.93 28.3784 139.822 29.814V34.0712H143.909V13.7007H139.822Z" fill="white"/>
<path d="M93.1367 19.7897V34.0713H89.0499V19.7897C89.0499 18.2056 87.7371 16.8937 86.1519 16.8937C85.1612 16.8937 84.2448 17.3888 83.6999 18.2303L73.52 34.0961H68.6406L80.257 16.0274C81.545 14.0225 83.7494 12.8097 86.1272 12.8097C89.9911 12.785 93.1367 15.9284 93.1367 19.7897Z" fill="white"/>
<path d="M192.481 20.5567V34.1205H188.394V20.5567C188.394 18.5518 185.967 16.8687 183.118 16.8687C180.27 16.8687 177.842 18.5518 177.842 20.5567C177.842 21.6952 178.239 22.215 178.536 22.4873C179.428 23.3288 181.31 23.7496 183.812 23.6506C185.124 23.6011 186.239 24.3932 186.635 25.6307C187.032 26.8683 186.561 28.1801 185.471 28.8979L177.496 34.0958H170.016L180.072 27.5119C178.239 27.1653 176.777 26.4723 175.688 25.4575C174.4 24.2199 173.731 22.5368 173.731 20.5567C173.731 16.2746 177.942 12.7847 183.118 12.7847C188.27 12.7847 192.481 16.2746 192.481 20.5567Z" fill="white"/>
<path d="M164.843 13.7007V23.131V23.9231C164.843 27.7596 161.722 30.8783 157.883 30.8783C154.044 30.8783 150.923 27.7596 150.923 23.9231V13.7007H146.836V23.9231C146.836 30.012 151.79 34.9623 157.883 34.9623C160.508 34.9623 162.935 34.0217 164.843 32.4871V34.0712H168.954V23.9231V23.131V13.7007H164.843Z" fill="white"/>
<path d="M113.866 13.7007V23.131V23.9231C113.866 27.7596 110.745 30.8783 106.906 30.8783C103.067 30.8783 99.9462 27.7596 99.9462 23.9231V13.7007H95.8594V23.9231C95.8594 30.012 100.813 34.9623 106.906 34.9623C109.532 34.9623 111.959 34.0217 113.866 32.4871V34.0712H117.953V23.9231V23.131V13.7007H113.866Z" fill="white"/>
<path d="M250.787 19.0222C248.756 15.1857 244.595 12.8096 239.939 12.8096C233.276 12.8096 227.852 17.7599 227.852 23.8488C227.852 29.9872 233.276 34.987 239.939 34.987C243.505 34.987 246.874 33.5761 249.152 31.0762L246.155 28.3041C244.62 29.9624 242.366 30.903 239.939 30.903C236.347 30.903 233.301 28.7991 232.285 25.9032H246.601C248.261 25.9032 249.796 25.0369 250.639 23.6013C251.505 22.1904 251.555 20.4826 250.787 19.0222ZM247.146 21.4974C247.072 21.6211 246.923 21.7944 246.601 21.7944H232.285C233.301 18.948 236.347 16.8936 239.914 16.8936C243.01 16.8936 245.833 18.4777 247.146 20.9281C247.295 21.1756 247.221 21.3736 247.146 21.4974Z" fill="white"/>
<path d="M227.849 13.7007H204.344V17.8094H214.053V34.0465H218.14V17.8094H227.849V13.7007Z" fill="white"/>
<path d="M274.143 19.7895V34.0712H270.056V19.7895C270.056 18.2054 268.744 16.8936 267.158 16.8936C266.168 16.8936 265.251 17.3886 264.706 18.2302L254.526 34.0959H249.672L261.288 16.0273C262.576 14.0224 264.781 12.8096 267.158 12.8096C270.998 12.8096 274.143 15.9283 274.143 19.7895Z" fill="white"/>
<path d="M289.996 12.9828C289.327 12.8838 288.633 12.8096 287.94 12.8096C287.841 12.8096 287.767 12.8096 287.667 12.8096C281.129 12.9333 275.828 17.8341 275.828 23.8488C275.828 29.9872 281.252 34.987 287.915 34.987C290.986 34.987 293.785 33.9227 295.915 32.2148V34.0464H300.002V23.8488C300.027 18.4034 295.692 13.8739 289.996 12.9828ZM295.915 23.9478C295.915 25.8537 295.024 27.611 293.562 28.8733C292.101 30.1357 290.12 30.903 287.915 30.903C283.506 30.903 279.915 27.7348 279.915 23.8488C279.915 20.0123 283.506 16.8936 287.915 16.8936C292.324 16.8936 295.915 20.0123 295.915 23.8488V23.9478Z" fill="white"/>
<path d="M11.0531 29.5352C19.9202 17.9762 26.7067 9.53595 31.2146 4.51138C31.8834 3.76883 32.5026 3.10054 33.097 2.457C29.8523 1.02141 26.2114 0.27886 22.3723 0.476873C10.0376 1.09566 0.20446 11.2933 0.00631185 23.6196C-0.0184566 24.5849 0.0310803 25.5502 0.130154 26.5155C0.724598 31.9609 7.70931 33.8915 11.0531 29.5352Z" fill="white"/>
<path d="M46.7954 19.9815C46.0029 15.3034 43.8232 11.1204 40.7024 7.80371C39.7364 9.78384 38.7705 11.5164 38.6218 11.7887C37.0614 14.7342 35.4763 17.9024 34.0397 20.9468C32.4793 24.2388 36.3184 27.4565 39.2906 25.3773C41.8418 23.6447 44.4177 21.7636 46.7954 19.9815Z" fill="white"/>
<path d="M27.9928 38.7922C26.3828 39.312 24.8224 38.8913 23.8317 37.7279C22.3456 35.9458 22.8162 33.2974 23.9555 29.8569C24.7234 27.5303 25.937 24.5353 27.5965 20.9464C28.7854 18.3227 30.0238 15.798 31.0641 13.7437C27.4727 18.0752 22.519 24.2631 15.7324 33.1241C13.0574 36.6141 10.6301 39.609 8.5 42.109C12.5868 45.5247 17.8377 47.5543 23.584 47.5543C35.4977 47.5543 45.3555 38.6932 46.9159 27.2085C40.6 31.7875 32.3025 37.4309 27.9928 38.7922Z" fill="white"/>
</svg>
