<svg width="47" height="48" viewBox="0 0 47 48" fill="none" xmlns="http://www.w3.org/2000/svg">
<path d="M11.0531 29.0901C19.9202 17.5311 26.7067 9.09082 31.2146 4.06625C31.8834 3.3237 32.5026 2.65541 33.097 2.01187C29.8523 0.576278 26.2114 -0.166269 22.3723 0.0317431C10.0376 0.650533 0.20446 10.8482 0.00631185 23.1745C-0.0184566 24.1398 0.0310803 25.1051 0.130154 26.0704C0.724598 31.5157 7.70931 33.4464 11.0531 29.0901Z" fill="white"/>
<path d="M46.7954 19.5359C46.0029 14.8579 43.8232 10.6749 40.7024 7.35815C39.7364 9.33828 38.7705 11.0709 38.6218 11.3432C37.0614 14.2886 35.4763 17.4568 34.0397 20.5012C32.4793 23.7932 36.3184 27.0109 39.2906 24.9318C41.8418 23.1992 44.4177 21.318 46.7954 19.5359Z" fill="white"/>
<path d="M27.9928 38.3471C26.3828 38.8669 24.8224 38.4461 23.8317 37.2828C22.3456 35.5007 22.8162 32.8522 23.9555 29.4118C24.7234 27.0851 25.937 24.0902 27.5965 20.5012C28.7854 17.8775 30.0238 15.3529 31.0641 13.2985C27.4727 17.63 22.519 23.8179 15.7324 32.679C13.0574 36.1689 10.6301 39.1639 8.5 41.6638C12.5868 45.0795 17.8377 47.1091 23.584 47.1091C35.4977 47.1091 45.3555 38.2481 46.9159 26.7633C40.6 31.3424 32.3025 36.9857 27.9928 38.3471Z" fill="white"/>
</svg>
