<svg width="40" height="40" viewBox="0 0 40 40" fill="none" xmlns="http://www.w3.org/2000/svg">
<path d="M20 40C31.0457 40 40 31.0457 40 20C40 8.9543 31.0457 0 20 0C8.95431 0 0 8.9543 0 20C0 31.0457 8.95431 40 20 40Z" fill="url(#paint0_linear_2052_2766)"/>
<path d="M25.2974 13.5709C24.65 13.5709 24.125 14.0959 24.125 14.7433C24.125 15.3908 24.65 15.9158 25.2974 15.9158C25.9449 15.9158 26.4698 15.3908 26.4698 14.7433C26.4698 14.0959 25.9449 13.5709 25.2974 13.5709Z" fill="white"/>
<path d="M20.0816 15.0746C17.3658 15.0746 15.1562 17.2842 15.1562 20C15.1562 22.7158 17.3658 24.9253 20.0816 24.9253C22.7974 24.9253 25.0069 22.7158 25.0069 20C25.0069 17.2842 22.7974 15.0746 20.0816 15.0746ZM20.0816 23.1544C18.3422 23.1544 16.926 21.7394 16.926 20C16.926 18.2606 18.341 16.8455 20.0816 16.8455C21.821 16.8455 23.236 18.2606 23.236 20C23.2372 21.7394 21.8221 23.1544 20.0816 23.1544Z" fill="white"/>
<path d="M23.9921 29.9988H16.0068C12.6948 29.9988 10 27.304 10 23.992V16.0067C10 12.6936 12.6948 9.99998 16.0068 9.99998H23.9921C27.304 9.99998 30 12.6948 30 16.0067V23.992C30 27.304 27.3052 29.9988 23.9921 29.9988ZM16.0079 11.8817C13.7331 11.8817 11.8817 13.7319 11.8817 16.0079V23.9932C11.8817 26.2681 13.7319 28.1194 16.0079 28.1194H23.9932C26.2681 28.1194 28.1195 26.2692 28.1195 23.9932V16.0079C28.1195 13.7331 26.2681 11.8817 23.9932 11.8817H16.0079Z" fill="white"/>
<defs>
<linearGradient id="paint0_linear_2052_2766" x1="34.1425" y1="5.85774" x2="5.85747" y2="34.1428" gradientUnits="userSpaceOnUse">
<stop offset="1" stop-color="#938178"/>
</linearGradient>
</defs>
</svg>
