<svg width="40" height="40" viewBox="0 0 40 40" fill="none" xmlns="http://www.w3.org/2000/svg">
<path d="M20 40C31.0457 40 40 31.0457 40 20C40 8.95431 31.0457 0 20 0C8.95431 0 0 8.95431 0 20C0 31.0457 8.95431 40 20 40Z" fill="url(#paint0_linear_2052_2755)"/>
<path d="M28.1791 12.0405L9.3903 19.1799C8.85949 19.3814 8.87354 20.1372 9.41149 20.3191L14.2568 21.9564L25.2902 14.8363L16.5518 22.9862L23.3545 28.1487C24.0622 28.6857 25.0884 28.3246 25.3038 27.4629L28.9812 12.7535C29.0998 12.2788 28.6362 11.8668 28.1791 12.0405Z" fill="white"/>
<defs>
<linearGradient id="paint0_linear_2052_2755" x1="5.85794" y1="5.85773" x2="34.1422" y2="34.142" gradientUnits="userSpaceOnUse">
<stop stop-color="#938178"/>
</linearGradient>
</defs>
</svg>
