<svg width="40" height="40" viewBox="0 0 40 40" fill="none" xmlns="http://www.w3.org/2000/svg">
<path d="M20 40C31.0457 40 40 31.0457 40 20C40 8.95431 31.0457 0 20 0C8.95432 0 0 8.95431 0 20C0 31.0457 8.95432 40 20 40Z" fill="url(#paint0_linear_2052_2761)"/>
<path d="M10 30.0495L11.4373 24.6858C10.6237 23.2178 10.1957 21.5717 10.1957 19.9021C10.1957 14.4417 14.6386 10 20.0979 10C25.5583 10 30 14.4429 30 19.9021C30 25.3626 25.5571 29.8043 20.0979 29.8043C18.4589 29.8043 16.84 29.3904 15.3909 28.6039L10 30.0495ZM15.6585 26.5959L15.9981 26.7987C17.2444 27.5416 18.6617 27.9342 20.0979 27.9342C24.5266 27.9342 28.1288 24.332 28.1288 19.9033C28.1288 15.4746 24.5266 11.8724 20.0979 11.8724C15.6703 11.8724 12.067 15.4746 12.067 19.9033C12.067 21.3654 12.4726 22.8051 13.2414 24.0667L13.4501 24.4087L12.6483 27.4024L15.6585 26.5959Z" fill="white"/>
<path fill-rule="evenodd" clip-rule="evenodd" d="M23.7935 21.2805C23.3856 21.0364 22.8562 20.7641 22.3751 20.961C22.0072 21.1119 21.7714 21.6885 21.5332 21.9832C21.4106 22.1342 21.2643 22.1578 21.0769 22.0823C19.6938 21.5317 18.6349 20.6084 17.8709 19.3362C17.7412 19.1381 17.7648 18.9824 17.9204 18.7997C18.1515 18.5285 18.4404 18.2195 18.5029 17.854C18.5654 17.4885 18.3932 17.0605 18.2423 16.7351C18.0489 16.3188 17.8332 15.7257 17.4157 15.4899C17.0325 15.273 16.5279 15.3944 16.1859 15.6727C15.5964 16.1526 15.3122 16.9048 15.3205 17.65C15.3228 17.8623 15.3488 18.0733 15.3983 18.2773C15.5174 18.769 15.745 19.2277 15.9996 19.664C16.1918 19.9929 16.4017 20.3125 16.6281 20.619C17.3674 21.6236 18.2883 22.4973 19.353 23.1494C19.8848 23.476 20.459 23.7613 21.0521 23.9571C21.7183 24.1776 22.3114 24.4063 23.0307 24.2695C23.7841 24.1269 24.5258 23.6611 24.8252 22.9348C24.9137 22.7202 24.9573 22.4808 24.9078 22.2544C24.8076 21.7863 24.172 21.5069 23.7935 21.2805Z" fill="white"/>
<defs>
<linearGradient id="paint0_linear_2052_2761" x1="34.1425" y1="5.85788" x2="5.85746" y2="34.1428" gradientUnits="userSpaceOnUse">
<stop stop-color="#938178"/>
</linearGradient>
</defs>
</svg>
